<svg width="21" height="19" viewBox="0 0 21 19" fill="none" xmlns="http://www.w3.org/2000/svg">
                        <path d="M13.0357 10.0357L18.6106 5.20412C19.4931 4.43935 20 3.32916 20 2.16145C20 1.52 19.4814 1 18.84 1H10.5H2.16004C1.51859 1 1 1.52 1 2.16145C1 3.32916 1.50695 4.43935 2.38937 5.20412L7.96429 10.0357C8.30453 10.3306 8.5 10.7587 8.5 11.2089V17.0979C8.5 17.4906 8.93198 17.73 9.265 17.5219L11.56 16.0875C12.1448 15.722 12.5 15.0811 12.5 14.3915V11.2089C12.5 10.7587 12.6955 10.3306 13.0357 10.0357Z" stroke="white" stroke-width="1.4" stroke-linecap="round" stroke-linejoin="round"></path>
                    </svg>