<svg width="28" height="28" viewBox="0 0 28 28" fill="none" xmlns="http://www.w3.org/2000/svg">
<path d="M27.3469 24.9305L21.2262 18.8097C22.6998 16.848 23.4953 14.4601 23.4926 12.0065C23.4926 5.73942 18.3938 0.640625 12.1267 0.640625C5.85953 0.640625 0.760742 5.73942 0.760742 12.0065C0.760742 18.2737 5.85953 23.3725 12.1267 23.3725C14.5802 23.3751 16.9681 22.5797 18.9298 21.106L25.0506 27.2268C25.3604 27.5038 25.7645 27.6516 26.1799 27.64C26.5953 27.6284 26.9906 27.4581 27.2844 27.1643C27.5783 26.8704 27.7485 26.4752 27.7601 26.0598C27.7717 25.6444 27.6239 25.2403 27.3469 24.9305ZM4.00815 12.0065C4.00815 10.4009 4.48429 8.83122 5.37636 7.49614C6.26844 6.16106 7.53638 5.12049 9.01984 4.50602C10.5033 3.89154 12.1357 3.73077 13.7105 4.04403C15.2853 4.35728 16.7319 5.13049 17.8673 6.26589C19.0027 7.40128 19.7759 8.84786 20.0892 10.4227C20.4024 11.9975 20.2417 13.6299 19.6272 15.1134C19.0127 16.5968 17.9722 17.8648 16.6371 18.7568C15.302 19.6489 13.7324 20.1251 12.1267 20.1251C9.97429 20.1225 7.91082 19.2663 6.38886 17.7444C4.8669 16.2224 4.01073 14.1589 4.00815 12.0065Z" fill="white"/>
</svg>
