<svg xmlns="http://www.w3.org/2000/svg" width="6" height="34" viewBox="0 0 6 34" fill="none"><path d="M0.333333 3C0.333333 4.47276 1.52724 5.66667 3 5.66667C4.47276 5.66667 5.66667 4.47276 5.66667 3C5.66667 1.52724 4.47276 0.333333 3 0.333333C1.52724 0.333333 0.333333 1.52724 0.333333 3ZM0.333334 31C0.333335 32.4728 1.52724 33.6667 3 33.6667C4.47276 33.6667 5.66667 32.4728 5.66667 31C5.66667 29.5272 4.47276 28.3333 3 28.3333C1.52724 28.3333 0.333334 29.5272 0.333334 31ZM2.5 3L2.5 31L3.5 31L3.5 3L2.5 3Z" fill="#3982CB"/></svg>