<svg xmlns="http://www.w3.org/2000/svg" width="42" height="42" viewBox="0 0 42 42" fill="none"><path d="M19.0957 37.6556H17.8357C17.1391 37.6537 16.4716 37.3761 15.979 36.8836C15.4865 36.391 15.2089 35.7235 15.207 35.027V27.2497C15.2089 26.5531 15.4865 25.8857 15.979 25.3931C16.4716 24.9006 17.1391 24.623 17.8357 24.6211H19.0957C19.3081 24.6226 19.5196 24.6493 19.7257 24.7007C20.2968 24.8391 20.8047 25.1659 21.1673 25.6284C21.5299 26.0909 21.7261 26.662 21.7243 27.2497V35.027C21.7224 35.7235 21.4448 36.391 20.9523 36.8836C20.4597 37.3761 19.7922 37.6537 19.0957 37.6556ZM17.8357 26.0694C17.6806 26.0694 17.5272 26.0999 17.384 26.1592C17.2407 26.2185 17.1106 26.3055 17.001 26.4151C16.8914 26.5247 16.8045 26.6548 16.7452 26.798C16.6858 26.9412 16.6553 27.0947 16.6553 27.2497V35.027C16.6553 35.34 16.7797 35.6402 17.001 35.8616C17.2224 36.0829 17.5226 36.2073 17.8357 36.2073H19.0957C19.4087 36.2073 19.7089 36.0829 19.9303 35.8616C20.1516 35.6402 20.276 35.34 20.276 35.027V27.2497C20.2756 26.9861 20.1869 26.7303 20.0242 26.5229C19.8615 26.3156 19.634 26.1686 19.3781 26.1056C19.2842 26.0954 19.1895 26.0954 19.0957 26.1056L17.8357 26.0694Z" fill="#3982CB"/><path d="M39.3711 37.6556H38.1111C37.4145 37.6537 36.747 37.3761 36.2545 36.8836C35.7619 36.391 35.4843 35.7235 35.4824 35.027V27.2497C35.4806 26.662 35.6768 26.0909 36.0394 25.6284C36.402 25.1659 36.9099 24.8391 37.4811 24.7007C37.6872 24.6493 37.8986 24.6226 38.1111 24.6211H39.3711C40.0676 24.623 40.7351 24.9006 41.2277 25.3931C41.7202 25.8857 41.9978 26.5531 41.9997 27.2497V35.027C41.9978 35.7235 41.7202 36.391 41.2277 36.8836C40.7351 37.3761 40.0676 37.6537 39.3711 37.6556ZM38.1111 26.0694C38.0172 26.0592 37.9225 26.0592 37.8286 26.0694C37.5666 26.1338 37.3345 26.2861 37.1711 26.5009C37.0078 26.7157 36.9229 26.98 36.9307 27.2497V35.027C36.9307 35.34 37.0551 35.6402 37.2764 35.8616C37.4978 36.0829 37.798 36.2073 38.1111 36.2073H39.3711C39.6841 36.2073 39.9843 36.0829 40.2057 35.8616C40.427 35.6402 40.5514 35.34 40.5514 35.027V27.2497C40.5514 27.0947 40.5209 26.9412 40.4616 26.798C40.4022 26.6548 40.3153 26.5247 40.2057 26.4151C40.0961 26.3055 39.966 26.2185 39.8228 26.1592C39.6795 26.0999 39.5261 26.0694 39.3711 26.0694H38.1111Z" fill="#3982CB"/><path d="M13.7586 34.0344H0V25.3447H13.7586V34.0344ZM1.44828 32.5861H12.3103V26.793H1.44828V32.5861Z" fill="#3982CB"/><path d="M12.3105 32.5859H13.7588V37.6549H12.3105V32.5859Z" fill="#3982CB"/><path d="M0 32.5859H1.44828V37.6549H0V32.5859Z" fill="#3982CB"/><path d="M34.7581 37.6549H22.4478C21.8716 37.6549 21.3191 37.4261 20.9117 37.0187C20.5043 36.6112 20.2754 36.0587 20.2754 35.4825V31.1377H36.9306V35.4825C36.9306 36.0587 36.7017 36.6112 36.2943 37.0187C35.8869 37.4261 35.3343 37.6549 34.7581 37.6549ZM21.7237 32.586V35.4825C21.7237 35.6746 21.8 35.8588 21.9358 35.9946C22.0716 36.1304 22.2558 36.2067 22.4478 36.2067H34.7581C34.9502 36.2067 35.1344 36.1304 35.2702 35.9946C35.406 35.8588 35.4823 35.6746 35.4823 35.4825V32.586H21.7237Z" fill="#3982CB"/><path d="M36.9306 32.5861H20.2754V30.4137C20.2754 29.4534 20.6569 28.5325 21.3359 27.8534C22.0149 27.1744 22.9358 26.793 23.8961 26.793H33.3099C34.2701 26.793 35.1911 27.1744 35.8701 27.8534C36.5491 28.5325 36.9306 29.4534 36.9306 30.4137V32.5861ZM21.7237 31.1378H35.4823V30.4137C35.4823 29.8375 35.2534 29.2849 34.846 28.8775C34.4386 28.4701 33.886 28.2412 33.3099 28.2412H23.8961C23.3199 28.2412 22.7674 28.4701 22.36 28.8775C21.9525 29.2849 21.7237 29.8375 21.7237 30.4137V31.1378Z" fill="#3982CB"/><path d="M36.9306 30.4139H35.4823C35.4823 29.8378 35.2534 29.2852 34.846 28.8778C34.4386 28.4704 33.8861 28.2415 33.3099 28.2415H23.8961C23.32 28.2415 22.7674 28.4704 22.36 28.8778C21.9526 29.2852 21.7237 29.8378 21.7237 30.4139H20.2754V27.2494C20.275 26.9859 20.1863 26.73 20.0236 26.5226C19.8609 26.3153 19.6334 26.1684 19.3775 26.1053L18.8271 25.975V20.276C18.8271 18.9316 19.3612 17.6423 20.3118 16.6917C21.2624 15.7411 22.5517 15.207 23.8961 15.207H33.3099C34.6543 15.207 35.9436 15.7411 36.8942 16.6917C37.8448 17.6423 38.3789 18.9316 38.3789 20.276V25.975L37.8285 26.1053C37.5726 26.1684 37.3451 26.3153 37.1824 26.5226C37.0197 26.73 36.931 26.9859 36.9306 27.2494V30.4139ZM23.8961 26.7932H33.3099C34.0933 26.7932 34.8556 27.0473 35.4823 27.5174V27.2494C35.4803 26.7621 35.6149 26.2839 35.8709 25.8692C36.1269 25.4545 36.494 25.1198 36.9306 24.9032V20.276C36.9306 19.3157 36.5491 18.3948 35.8701 17.7158C35.1911 17.0368 34.2702 16.6553 33.3099 16.6553H23.8961C22.9358 16.6553 22.0149 17.0368 21.3359 17.7158C20.6569 18.3948 20.2754 19.3157 20.2754 20.276V24.9032C20.712 25.1198 21.0791 25.4545 21.3351 25.8692C21.5911 26.2839 21.7257 26.7621 21.7237 27.2494V27.5174C22.3504 27.0473 23.1127 26.7932 23.8961 26.7932Z" fill="#3982CB"/><path d="M5.06934 28.9658H8.69003V30.4141H5.06934V28.9658Z" fill="#3982CB"/><path d="M9.2324 26.7936H4.5255L2.65723 20.2764H11.1007L9.2324 26.7936ZM5.61171 25.3453H8.14619L9.17447 21.7246H4.58343L5.61171 25.3453Z" fill="#3982CB"/><path d="M6.87928 21.7244C6.69438 21.723 6.51006 21.7036 6.32893 21.6664C4.97165 21.4353 3.73894 20.7341 2.84663 19.6855C1.95432 18.637 1.4593 17.308 1.44824 15.9312V15.2071H2.17238C3.51981 15.2001 4.82691 15.6666 5.86548 16.525L6.13341 16.735V17.0754C6.12893 17.9569 6.38872 18.8195 6.87928 19.5519C7.37829 18.8247 7.64815 17.9646 7.6541 17.0826V16.7423L7.92203 16.5323C8.95195 15.6776 10.2478 15.2089 11.5862 15.2071H12.3103V15.9312C12.3155 17.3323 11.8165 18.6885 10.9045 19.7521C9.99242 20.8157 8.72821 21.5158 7.34272 21.7244C7.18862 21.7397 7.03338 21.7397 6.87928 21.7244ZM9.0879 17.4157C9.03469 18.2827 8.78721 19.1266 8.36376 19.885C9.00303 19.5923 9.5617 19.1487 9.99181 18.5925C10.4219 18.0363 10.7106 17.384 10.8331 16.6916C10.2038 16.8012 9.60728 17.0511 9.0879 17.423V17.4157ZM2.93997 16.6916C3.07096 17.3808 3.3629 18.0292 3.79201 18.5842C4.22112 19.1391 4.77526 19.5848 5.40928 19.885C4.98787 19.1258 4.74052 18.2823 4.68514 17.4157C4.16446 17.0491 3.56805 16.8041 2.93997 16.6988V16.6916Z" fill="#3982CB"/><path d="M6.87971 21.6594L6.36557 21.1525C6.24247 21.0222 6.11937 20.8918 6.0035 20.7543C5.07425 19.6321 4.59647 18.204 4.66342 16.7486C4.73036 15.2932 5.33723 13.915 6.36557 12.8829L6.87971 12.376L7.39385 12.8829C7.9386 13.4244 8.37022 14.0688 8.66361 14.7786C8.957 15.4885 9.1063 16.2496 9.10281 17.0177V17.0539C9.09872 18.3975 8.6277 19.6979 7.7704 20.7325C7.64006 20.8918 7.51695 21.0222 7.39385 21.1525L6.87971 21.6594ZM6.87971 14.5194C6.37531 15.2549 6.10536 16.1259 6.10536 17.0177C6.10536 17.9095 6.37531 18.7805 6.87971 19.516C7.37873 18.7887 7.64859 17.9287 7.65454 17.0467H8.37868H7.65454C7.66501 16.1442 7.3942 15.2609 6.87971 14.5194Z" fill="#3982CB"/><path d="M15.207 12.3105H16.6553V29.6899H15.207V12.3105Z" fill="#3982CB"/><path d="M21.7965 13.7585H10.0654L10.9272 4.34473H20.9347L21.7965 13.7585ZM11.6585 12.3102H20.2034L19.6168 5.793H12.2451L11.6585 12.3102Z" fill="#3982CB"/></svg>