<svg xmlns="http://www.w3.org/2000/svg" width="32" height="32" viewBox="0 0 32 32" fill="none"><path d="M31.2754 0.673584C30.8223 0.404541 30.2751 0.394287 29.8123 0.646729L21.2341 5.32153C21.1655 5.35913 21.0835 5.35913 21.0149 5.32153L11.5825 0.181152C11.1394 -0.0603027 10.6101 -0.0603027 10.167 0.181152L0.771484 5.30151C0.295654 5.56079 0 6.05859 0 6.60034V25.6667C0 26.1941 0.270752 26.6694 0.723877 26.9385C1.177 27.2078 1.72412 27.218 2.18701 26.9656L8.97437 23.2666C9.25146 24.1372 9.68823 24.9553 10.2693 25.6719C10.2778 25.6851 10.2871 25.6978 10.2969 25.7102L14.7185 31.3748C15.0286 31.7722 15.4956 32 15.9995 32C16.5034 32 16.9705 31.772 17.2805 31.3745L20.3748 27.4084L20.4165 27.4312C20.6382 27.552 20.8813 27.6123 21.1243 27.6123C21.3674 27.6123 21.6106 27.552 21.832 27.4312L31.2278 22.3105C31.7036 22.0515 31.999 21.5537 31.999 21.012V1.94531C31.9993 1.41821 31.7285 0.942871 31.2754 0.673584ZM16.2952 30.6057C16.1973 30.7312 16.0679 30.75 15.9995 30.75C15.9312 30.75 15.8018 30.7312 15.7039 30.6057L11.322 24.9919C11.3079 24.9697 11.2922 24.9482 11.2754 24.9275C10.3723 23.8345 9.875 22.45 9.875 21.0293C9.875 19.3772 10.5227 17.8286 11.699 16.6685C12.875 15.5085 14.4329 14.8821 16.0864 14.905C19.4392 14.9514 22.1477 17.7183 22.1245 21.0728C22.1147 22.4824 21.6394 23.8042 20.7498 24.8955C20.7424 24.9048 20.7354 24.9141 20.7283 24.9236L16.2952 30.6057ZM30.7493 21.0117C30.7493 21.0957 30.7034 21.1729 30.6296 21.2131L21.2341 26.3335C21.2246 26.3386 21.2144 26.3416 21.2043 26.3452L21.7273 25.6748C21.7292 25.6724 21.7312 25.6699 21.7332 25.6675C22.78 24.3745 23.3628 22.7471 23.3743 21.0815C23.3865 19.3242 22.7756 17.7009 21.7495 16.4229V10.563C21.7495 10.218 21.4695 9.93799 21.1245 9.93799C20.7793 9.93799 20.4995 10.218 20.4995 10.563V15.1951C19.2791 14.2502 17.7563 13.678 16.1035 13.6553C14.1135 13.6282 12.2373 14.3818 10.821 15.7786C9.40479 17.1755 8.62476 19.0403 8.62476 21.0293C8.62476 21.3547 8.64697 21.6782 8.68945 21.9983L1.58887 25.8682C1.48926 25.9224 1.40405 25.8889 1.36206 25.864C1.32031 25.8391 1.25 25.7803 1.25 25.667V6.60034C1.25 6.51636 1.29565 6.43945 1.36938 6.39917L10.2498 1.55957V11.2693C10.2498 11.6145 10.5295 11.8943 10.8748 11.8943C11.22 11.8943 11.4998 11.6145 11.4998 11.2693V1.55957L20.4167 6.41919C20.8599 6.66064 21.3892 6.66064 21.8323 6.41919L30.4104 1.74414C30.5103 1.68994 30.5952 1.72339 30.637 1.74829C30.679 1.77319 30.7493 1.83179 30.7493 1.94531V21.0117Z" fill="#3982CB"/><path d="M15.9995 16.8945C13.7197 16.8945 11.8647 18.7493 11.8647 21.0293C11.8647 23.3093 13.7197 25.1643 15.9995 25.1643C18.2795 25.1643 20.1345 23.3093 20.1345 21.0293C20.1345 18.7493 18.2795 16.8945 15.9995 16.8945ZM15.9995 23.9143C14.4089 23.9143 13.1147 22.6201 13.1147 21.0293C13.1147 19.4385 14.4089 18.1443 15.9995 18.1443C17.5903 18.1443 18.8845 19.4385 18.8845 21.0293C18.8845 22.6201 17.5903 23.9143 15.9995 23.9143Z" fill="#3982CB"/><path d="M21.1245 7.5686C20.9602 7.5686 20.7988 7.6355 20.6826 7.75195C20.5664 7.86816 20.4995 8.0293 20.4995 8.1936C20.4995 8.35815 20.5664 8.51929 20.6826 8.6355C20.7988 8.75171 20.9602 8.8186 21.1245 8.8186C21.2888 8.8186 21.4502 8.75171 21.5662 8.6355C21.6826 8.51929 21.7495 8.35815 21.7495 8.1936C21.7495 8.0293 21.6826 7.86816 21.5662 7.75195C21.4502 7.6355 21.2888 7.5686 21.1245 7.5686Z" fill="#3982CB"/><path d="M10.8748 12.9556C10.7104 12.9556 10.5491 13.0222 10.4329 13.1387C10.3167 13.2546 10.2498 13.416 10.2498 13.5803C10.2498 13.7449 10.3167 13.906 10.4329 14.0222C10.5491 14.1384 10.7104 14.2053 10.8748 14.2053C11.0391 14.2053 11.2004 14.1384 11.3167 14.0222C11.4329 13.906 11.4998 13.7449 11.4998 13.5803C11.4998 13.416 11.4329 13.2546 11.3167 13.1387C11.2004 13.0222 11.0391 12.9556 10.8748 12.9556Z" fill="#3982CB"/></svg>