<svg xmlns="http://www.w3.org/2000/svg" width="42" height="42" viewBox="0 0 42 42" fill="none"><g clip-path="url(#clip0_67_6867)"><path d="M31.3991 9.10417C31.3991 9.55727 31.0319 9.92448 30.5788 9.92448C30.126 9.92448 29.7588 9.55727 29.7588 9.10417C29.7588 8.6514 30.126 8.28418 30.5788 8.28418C31.0319 8.28418 31.3991 8.6514 31.3991 9.10417Z" fill="#3982CB"/><path d="M33.0344 23.3992C32.1199 22.9426 31.024 23.0727 30.2466 23.7279L25.733 27.4802C25.3735 26.567 24.483 25.9184 23.4432 25.9184H14.1397C13.0444 25.9184 12.0142 26.3453 11.2394 27.1197L7.60697 30.7525C7.46598 30.6468 7.2939 30.5878 7.11574 30.5878C7.10709 30.5897 6.7921 30.5718 6.53543 30.8281L3.38236 33.9815C3.33173 34.0132 3.28399 34.0507 3.24009 34.0946C2.91997 34.4148 2.91997 34.9339 3.24009 35.2543L3.25451 35.2684C3.25451 35.2687 3.25483 35.2687 3.25483 35.2687L9.74587 41.7601C10.066 42.0802 10.5854 42.0802 10.9058 41.7601L14.1868 38.4791C14.5069 38.159 14.5069 37.6396 14.1868 37.3195L16.4013 35.1046H23.8075C24.8358 35.1046 25.8201 34.722 26.5789 34.027L33.6192 27.5732C34.9391 26.3638 34.6385 24.2022 33.0344 23.3992ZM10.3259 40.0201L4.99479 34.6887L7.11542 32.5681L12.4465 37.8992L10.3259 40.0201ZM32.5108 26.3638L25.4706 32.8177C25.0152 33.2346 24.4247 33.4643 23.8075 33.4643H16.0613C15.8441 33.4643 15.6355 33.5509 15.4816 33.7047L13.0268 36.1592L8.77335 31.9061L12.3994 28.28C12.8643 27.8151 13.4825 27.5587 14.1397 27.5587H23.4432C23.8956 27.5587 24.2635 27.9269 24.2635 28.379C24.2635 28.8171 23.9088 29.1994 23.4432 29.1994H16.8816C16.4285 29.1994 16.0613 29.5666 16.0613 30.0194C16.0613 30.4724 16.4285 30.8397 16.8816 30.8397H23.4432C24.1827 30.8397 24.8877 30.5013 25.351 29.9316L31.2993 24.986C31.5796 24.7495 31.9731 24.7027 32.3009 24.8664C32.8768 25.1548 32.9863 25.928 32.5108 26.3638Z" fill="#3982CB"/><path d="M7.25824 16.2605L7.07655 16.8962H6.05469C5.60159 16.8962 5.23438 17.2634 5.23438 17.7165C5.23438 18.1693 5.60159 18.5365 6.05469 18.5365H7.18806L8.14809 20.4569C8.56786 21.2961 9.41124 21.8174 10.3492 21.8174H32.9276C33.8655 21.8174 34.7089 21.2961 35.1287 20.4569L36.0887 18.5365H37.2224C37.6752 18.5365 38.0424 18.1693 38.0424 17.7165C38.0424 17.2634 37.6752 16.8962 37.2224 16.8962H36.2005L36.0185 16.2608C35.4831 14.3862 34.6096 12.6344 33.422 11.0544C33.15 10.6923 32.636 10.6192 32.2736 10.8916C31.9115 11.1636 31.8385 11.6776 32.1108 12.04C33.1769 13.4589 33.961 15.0306 34.4413 16.7116L34.4942 16.8962H8.78255L8.83542 16.7113C10.4469 11.071 15.6213 6.56154 21.6384 6.56154C23.6497 6.56154 25.6054 7.05693 27.4501 8.03362C27.8506 8.24542 28.347 8.0929 28.5588 7.69235C28.7709 7.29213 28.6181 6.79578 28.2179 6.58365C26.9759 5.92644 25.6534 5.45764 24.305 5.1888C24.6912 4.65079 24.9193 3.99197 24.9193 3.28093C24.9193 1.47176 23.4476 0 21.6384 0C19.8295 0 18.3578 1.47176 18.3578 3.28093C18.3578 3.99197 18.5859 4.65079 18.972 5.1888C13.3907 6.30807 8.83382 10.7451 7.25824 16.2605ZM32.9276 20.1771H10.3492C10.0364 20.1771 9.75539 20.0031 9.61536 19.7234L9.02223 18.5365H34.2549L33.6614 19.7234C33.5214 20.0031 33.2404 20.1771 32.9276 20.1771ZM19.9981 3.28093C19.9981 2.37634 20.7338 1.6403 21.6384 1.6403C22.543 1.6403 23.2787 2.37634 23.2787 3.28093C23.2787 4.1852 22.543 4.92123 21.6384 4.92123C20.7338 4.92123 19.9981 4.1852 19.9981 3.28093Z" fill="#3982CB"/></g><defs><clipPath id="clip0_67_6867"><rect width="42" height="42" fill="white"/></clipPath></defs></svg>