<svg xmlns="http://www.w3.org/2000/svg" width="42" height="42" viewBox="0 0 42 42" fill="none"><path d="M39.5391 17.0234H38.7188V13.332C38.7188 11.5225 37.2464 10.0508 35.4375 10.0508C34.805 10.0508 34.2134 10.2305 33.7123 10.542C33.3768 9.08691 32.0701 8 30.5156 8H30.5147C28.7061 8 27.2334 9.47176 27.2334 11.2812V17.0234H14.7666V11.2812C14.7666 9.47176 13.2939 8 11.4844 8C9.92995 8 8.62321 9.08691 8.28772 10.542C7.78656 10.2305 7.19504 10.0508 6.5625 10.0508C4.75365 10.0508 3.28125 11.5225 3.28125 13.332V17.0234H2.46094C1.10422 17.0234 0 18.1277 0 19.4844V22.7656C0 24.1223 1.10422 25.2266 2.46094 25.2266H3.28125V28.918C3.28125 30.7275 4.75365 32.1992 6.5625 32.1992C7.19504 32.1992 7.78656 32.0195 8.28772 31.708C8.62321 33.1631 9.92995 34.25 11.4844 34.25H11.4853C13.2939 34.25 14.7666 32.7782 14.7666 30.9688V25.2266H27.2334V30.9688C27.2334 32.7782 28.7061 34.25 30.5156 34.25C32.0701 34.25 33.3768 33.1631 33.7123 31.708C34.2134 32.0195 34.805 32.1992 35.4375 32.1992C37.2464 32.1992 38.7188 30.7275 38.7188 28.918V25.2266H39.5391C40.8958 25.2266 42 24.1223 42 22.7656V19.4844C42 18.1277 40.8958 17.0234 39.5391 17.0234ZM3.28125 23.5859H2.46094C2.0088 23.5859 1.64062 23.2178 1.64062 22.7656V19.4844C1.64062 19.0322 2.0088 18.6641 2.46094 18.6641H3.28125V23.5859ZM8.20312 28.918C8.20312 29.3707 8.01952 29.7809 7.72247 30.0779C7.42543 30.375 7.01527 30.5586 6.5625 30.5586C5.65759 30.5586 4.92188 29.8229 4.92188 28.918V13.332C4.92188 12.4271 5.65759 11.6914 6.5625 11.6914C7.46741 11.6914 8.20312 12.4271 8.20312 13.332V28.918ZM13.126 30.9688C13.126 31.8737 12.3893 32.6094 11.4853 32.6094H11.4844C10.5804 32.6094 9.84375 31.8737 9.84375 30.9688V11.2812C9.84375 10.3763 10.5804 9.64062 11.4853 9.64062C12.3893 9.64062 13.126 10.3763 13.126 11.2812V30.9688ZM27.2286 20.3047H21.4922C21.0394 20.3047 20.6719 20.6722 20.6719 21.125C20.6719 21.5778 21.0394 21.9453 21.4922 21.9453H27.2286V23.5859H14.7624V18.6641H27.2286V20.3047ZM32.1562 30.9688C32.1562 31.8737 31.4196 32.6094 30.5147 32.6094C29.6107 32.6094 28.874 31.8737 28.874 30.9688V21.167C28.8734 21.1849 28.8718 21.2029 28.8692 21.2202V21.0298C28.8718 21.0471 28.8734 21.0651 28.874 21.083V11.2812C28.874 10.3763 29.6107 9.64062 30.5147 9.64062H30.5156C31.4196 9.64062 32.1562 10.3763 32.1562 11.2812V30.9688ZM37.0781 28.918C37.0781 29.8229 36.3424 30.5586 35.4375 30.5586C34.5326 30.5586 33.7969 29.8229 33.7969 28.918V13.332C33.7969 12.4271 34.5326 11.6914 35.4375 11.6914C36.3424 11.6914 37.0781 12.4271 37.0781 13.332V28.918ZM40.3594 22.7656C40.3594 23.2178 39.9912 23.5859 39.5391 23.5859H38.7188V18.6641H39.5391C39.9912 18.6641 40.3594 19.0322 40.3594 19.4844V22.7656Z" fill="#3982CB"/><path d="M18.2122 21.9453C17.7591 21.9453 17.3916 21.5781 17.3916 21.125C17.3916 20.6719 17.7585 20.3047 18.2116 20.3047H18.2122C18.6653 20.3047 19.0325 20.6719 19.0325 21.125C19.0325 21.5781 18.6653 21.9453 18.2122 21.9453Z" fill="#3982CB"/></svg>