<svg xmlns="http://www.w3.org/2000/svg" width="28" height="28" viewBox="0 0 28 28" fill="none"><path d="M24.5 20.4167V22.75M4.66667 7C4.66667 6.53587 4.85104 6.09075 5.17923 5.76256C5.50742 5.43437 5.95254 5.25 6.41667 5.25H21.5833C22.0475 5.25 22.4926 5.43437 22.8208 5.76256C23.149 6.09075 23.3333 6.53587 23.3333 7V13.4167H4.66667V7ZM3.5 20.4167V22.75V20.4167Z" stroke="#3982CB" stroke-width="1.7" stroke-linecap="round" stroke-linejoin="round"/><path d="M11.6663 10.5H8.16634C7.70221 10.5 7.25709 10.6844 6.9289 11.0126C6.60072 11.3408 6.41634 11.7859 6.41634 12.25V13.4167H13.4163V12.25C13.4163 11.7859 13.232 11.3408 12.9038 11.0126C12.5756 10.6844 12.1305 10.5 11.6663 10.5ZM19.833 10.5H16.333C15.8689 10.5 15.4238 10.6844 15.0956 11.0126C14.7674 11.3408 14.583 11.7859 14.583 12.25V13.4167H21.583V12.25C21.583 11.7859 21.3986 11.3408 21.0704 11.0126C20.7423 10.6844 20.2971 10.5 19.833 10.5ZM2.33301 15.1667C2.33301 14.7025 2.51738 14.2574 2.84557 13.9292C3.17376 13.601 3.61888 13.4167 4.08301 13.4167H23.9163C24.3805 13.4167 24.8256 13.601 25.1538 13.9292C25.482 14.2574 25.6663 14.7025 25.6663 15.1667V20.4167H2.33301V15.1667Z" stroke="#3982CB" stroke-width="1.7" stroke-linecap="round" stroke-linejoin="round"/></svg>