<svg xmlns="http://www.w3.org/2000/svg" width="42" height="42" viewBox="0 0 42 42" fill="none"><path d="M16.0348 28.829L13.1792 28.0999L11.6034 25.6092C11.453 25.3716 11.1913 25.2275 10.9101 25.2275C10.6289 25.2275 10.3672 25.3716 10.2169 25.6092L8.64104 28.0999L5.78537 28.829C5.51287 28.8985 5.29499 29.1029 5.20812 29.3703C5.12125 29.6378 5.17736 29.931 5.35692 30.1475L7.23864 32.4159L7.04956 35.3572C7.03151 35.6378 7.15849 35.9082 7.38605 36.0735C7.61352 36.2388 7.9099 36.276 8.17125 36.1722L10.91 35.0834L13.6489 36.1722C13.7467 36.211 13.8495 36.2301 13.9518 36.2301C14.1225 36.2301 14.2918 36.1769 14.4341 36.0735C14.6616 35.9082 14.7885 35.6379 14.7705 35.3572L14.5814 32.4159L16.4632 30.1475C16.6428 29.931 16.6989 29.6378 16.612 29.3703C16.5251 29.1029 16.3073 28.8985 16.0348 28.829ZM13.1106 31.6195C12.9769 31.7807 12.9099 31.9868 12.9233 32.1958L13.0501 34.1686L11.2131 33.4384C11.1158 33.3997 11.0129 33.3804 10.91 33.3804C10.8072 33.3804 10.7043 33.3997 10.607 33.4384L8.76992 34.1686L8.89674 32.1958C8.91019 31.9868 8.84317 31.7806 8.70946 31.6195L7.44733 30.098L9.36275 29.609C9.5657 29.5571 9.74108 29.4297 9.85306 29.2527L10.91 27.5821L11.967 29.2526C12.079 29.4296 12.2544 29.5571 12.4573 29.6089L14.3727 30.0979L13.1106 31.6195Z" fill="#3982CB"/><path d="M41.1797 20.1797H31.9102V0.820312C31.9102 0.367254 31.5429 0 31.0898 0H24.6914C24.2383 0 23.8711 0.367254 23.8711 0.820312C23.8711 1.27337 24.2383 1.64062 24.6914 1.64062H30.2695V20.1797H11.7305V1.64062H17.3086C17.7617 1.64062 18.1289 1.27337 18.1289 0.820312C18.1289 0.367254 17.7617 0 17.3086 0H10.9102C10.4571 0 10.0898 0.367254 10.0898 0.820312V20.1797H0.820312C0.367254 20.1797 0 20.5469 0 21V41.1797C0 41.6327 0.367254 42 0.820312 42H21H41.1797C41.6327 42 42 41.6327 42 41.1797V21C42 20.5469 41.6327 20.1797 41.1797 20.1797ZM1.64062 40.3594V21.8203H20.1797V40.3594H1.64062ZM40.3594 40.3594H21.8203V21.8203H40.3594V40.3594Z" fill="#3982CB"/><path d="M25.3477 31.0898C25.3477 34.2561 27.9236 36.832 31.0898 36.832C34.2561 36.832 36.832 34.2561 36.832 31.0898C36.832 27.9236 34.2561 25.3477 31.0898 25.3477C27.9236 25.3477 25.3477 27.9236 25.3477 31.0898ZM35.1914 31.0898C35.1914 33.3514 33.3514 35.1914 31.0898 35.1914C28.8282 35.1914 26.9883 33.3514 26.9883 31.0898C26.9883 28.8282 28.8282 26.9883 31.0898 26.9883C33.3514 26.9883 35.1914 28.8282 35.1914 31.0898Z" fill="#3982CB"/><path d="M21 1.64062C21.453 1.64062 21.8203 1.27336 21.8203 0.820312C21.8203 0.367266 21.453 0 21 0C20.547 0 20.1797 0.367266 20.1797 0.820312C20.1797 1.27336 20.547 1.64062 21 1.64062Z" fill="#3982CB"/><path d="M21 4.9248C20.7069 4.9248 20.4361 5.08116 20.2896 5.33496L15.3678 13.8599C15.2212 14.1137 15.2212 14.4264 15.3678 14.6802C15.5143 14.934 15.785 15.0904 16.0781 15.0904H25.9219C26.215 15.0904 26.4858 14.934 26.6323 14.6802C26.7789 14.4264 26.7789 14.1137 26.6323 13.8599L21.7104 5.33496C21.5639 5.08107 21.2931 4.9248 21 4.9248ZM24.5011 13.4497H17.4989L21 7.38574L24.5011 13.4497Z" fill="#3982CB"/></svg>