<svg viewBox="0 0 28 28" fill="none" xmlns="http://www.w3.org/2000/svg">
                                <path fill-rule="evenodd" clip-rule="evenodd" d="M0 23.1642C0 22.899 0.105357 22.6446 0.292893 22.4571L16.7929 5.95711C17.1834 5.56658 17.8166 5.56658 18.2071 5.95711L22.0429 9.79289C22.4334 10.1834 22.4334 10.8166 22.0429 11.2071L5.54289 27.7071C5.35536 27.8946 5.101 28 4.83579 28H1C0.447715 28 0 27.5523 0 27V23.1642ZM19.9566 4.20711C19.5663 3.81654 19.5664 3.18356 19.9569 2.79313L22.0429 0.707106C22.4334 0.316582 23.0666 0.316583 23.4571 0.707107L27.2929 4.54289C27.6834 4.93342 27.6834 5.56658 27.2929 5.95711L25.2056 8.04441C24.815 8.43502 24.1816 8.43492 23.7911 8.04417L19.9566 4.20711Z" fill="white"></path>
                            </svg>