<svg width="248" height="61" viewBox="0 0 248 61" fill="none" xmlns="http://www.w3.org/2000/svg">
<path d="M85.6577 23.7834H91.2123V45.3128H85.6577V42.7723C83.9927 44.8679 81.6532 45.9156 78.6391 45.9156C75.7685 45.9156 73.2998 44.8248 71.233 42.6432C69.1948 40.4328 68.1758 37.7345 68.1758 34.5481C68.1758 31.3618 69.1948 28.6778 71.233 26.4961C73.2998 24.2858 75.7685 23.1806 78.6391 23.1806C81.6532 23.1806 83.9927 24.2283 85.6577 26.3239V23.7834ZM75.4097 38.9401C76.5292 40.0596 77.9501 40.6194 79.6725 40.6194C81.3948 40.6194 82.8158 40.0596 83.9353 38.9401C85.0835 37.7919 85.6577 36.3279 85.6577 34.5481C85.6577 32.7683 85.0835 31.3187 83.9353 30.1992C82.8158 29.0509 81.3948 28.4768 79.6725 28.4768C77.9501 28.4768 76.5292 29.0509 75.4097 30.1992C74.2901 31.3187 73.7304 32.7683 73.7304 34.5481C73.7304 36.3279 74.2901 37.7919 75.4097 38.9401Z" fill="#3982CB"/>
<path d="M108.219 23.1806C110.573 23.1806 112.511 23.97 114.032 25.5488C115.583 27.1276 116.358 29.3093 116.358 32.0938V45.3128H110.803V32.7827C110.803 31.3474 110.415 30.2566 109.64 29.5102C108.865 28.7352 107.832 28.3476 106.54 28.3476C105.105 28.3476 103.957 28.7926 103.095 29.6825C102.234 30.5723 101.804 31.9072 101.804 33.6869V45.3128H96.2491V23.7834H101.804V26.1947C103.153 24.1853 105.291 23.1806 108.219 23.1806Z" fill="#3982CB"/>
<path d="M137.42 15.1716H142.974V45.3128H137.42V42.7723C135.784 44.8679 133.458 45.9156 130.444 45.9156C127.545 45.9156 125.062 44.8248 122.995 42.6432C120.957 40.4328 119.938 37.7345 119.938 34.5481C119.938 31.3618 120.957 28.6778 122.995 26.4961C125.062 24.2858 127.545 23.1806 130.444 23.1806C133.458 23.1806 135.784 24.2283 137.42 26.3239V15.1716ZM127.172 38.9401C128.32 40.0596 129.755 40.6194 131.478 40.6194C133.2 40.6194 134.621 40.0596 135.74 38.9401C136.86 37.7919 137.42 36.3279 137.42 34.5481C137.42 32.7683 136.86 31.3187 135.74 30.1992C134.621 29.0509 133.2 28.4768 131.478 28.4768C129.755 28.4768 128.32 29.0509 127.172 30.1992C126.052 31.3187 125.492 32.7683 125.492 34.5481C125.492 36.3279 126.052 37.7919 127.172 38.9401Z" fill="#3982CB"/>
<path d="M164.417 23.7834H169.971V45.3128H164.417V42.7723C162.752 44.8679 160.412 45.9156 157.398 45.9156C154.527 45.9156 152.059 44.8248 149.992 42.6432C147.954 40.4328 146.935 37.7345 146.935 34.5481C146.935 31.3618 147.954 28.6778 149.992 26.4961C152.059 24.2858 154.527 23.1806 157.398 23.1806C160.412 23.1806 162.752 24.2283 164.417 26.3239V23.7834ZM154.169 38.9401C155.288 40.0596 156.709 40.6194 158.431 40.6194C160.154 40.6194 161.575 40.0596 162.694 38.9401C163.843 37.7919 164.417 36.3279 164.417 34.5481C164.417 32.7683 163.843 31.3187 162.694 30.1992C161.575 29.0509 160.154 28.4768 158.431 28.4768C156.709 28.4768 155.288 29.0509 154.169 30.1992C153.049 31.3187 152.489 32.7683 152.489 34.5481C152.489 36.3279 153.049 37.7919 154.169 38.9401Z" fill="#3982CB"/>
<path d="M180.563 27.4865C181.079 26.1086 181.926 25.0752 183.103 24.3862C184.309 23.6973 185.644 23.3528 187.108 23.3528V29.5533C185.414 29.3523 183.893 29.6968 182.543 30.5867C181.223 31.4766 180.563 32.9549 180.563 35.0218V45.3128H175.008V23.7834H180.563V27.4865Z" fill="#3982CB"/>
<path d="M193.112 21.1999C192.193 21.1999 191.39 20.8698 190.701 20.2095C190.04 19.5206 189.71 18.7168 189.71 17.7982C189.71 16.8796 190.04 16.0759 190.701 15.3869C191.39 14.698 192.193 14.3535 193.112 14.3535C194.059 14.3535 194.863 14.698 195.523 15.3869C196.212 16.0759 196.557 16.8796 196.557 17.7982C196.557 18.7168 196.212 19.5206 195.523 20.2095C194.863 20.8698 194.059 21.1999 193.112 21.1999ZM190.356 45.3128V23.7834H195.911V45.3128H190.356Z" fill="#3982CB"/>
<path d="M212.965 23.1806C215.319 23.1806 217.257 23.97 218.778 25.5488C220.328 27.1276 221.103 29.3093 221.103 32.0938V45.3128H215.549V32.7827C215.549 31.3474 215.161 30.2566 214.386 29.5102C213.611 28.7352 212.578 28.3476 211.286 28.3476C209.851 28.3476 208.702 28.7926 207.841 29.6825C206.98 30.5723 206.549 31.9072 206.549 33.6869V45.3128H200.995V23.7834H206.549V26.1947C207.899 24.1853 210.037 23.1806 212.965 23.1806Z" fill="#3982CB"/>
<path d="M242.417 23.7834H247.971V45.3128H242.417V42.7723C240.752 44.8679 238.412 45.9156 235.398 45.9156C232.527 45.9156 230.059 44.8248 227.992 42.6432C225.954 40.4328 224.935 37.7345 224.935 34.5481C224.935 31.3618 225.954 28.6778 227.992 26.4961C230.059 24.2858 232.527 23.1806 235.398 23.1806C238.412 23.1806 240.752 24.2283 242.417 26.3239V23.7834ZM232.169 38.9401C233.288 40.0596 234.709 40.6194 236.431 40.6194C238.154 40.6194 239.575 40.0596 240.694 38.9401C241.843 37.7919 242.417 36.3279 242.417 34.5481C242.417 32.7683 241.843 31.3187 240.694 30.1992C239.575 29.0509 238.154 28.4768 236.431 28.4768C234.709 28.4768 233.288 29.0509 232.169 30.1992C231.049 31.3187 230.489 32.7683 230.489 34.5481C230.489 36.3279 231.049 37.7919 232.169 38.9401Z" fill="#3982CB"/>
<rect width="61" height="61" rx="6.28136" fill="#3982CB"/>
<path d="M46.6468 12.5586V48.4409H39.8292V25.1687L30.0257 41.8283H29.2295L19.426 25.2199V48.4409H12.5586V12.5586H19.6251L29.6276 29.5258L39.5804 12.5586H46.6468Z" fill="white"/>
</svg>
