<svg viewBox="0 0 58 59" fill="none" xmlns="http://www.w3.org/2000/svg">
    <rect x="0.5" y="0.580078" width="57" height="57" rx="28.5" stroke="#C2D1E0"></rect>
    <path d="M28.802 24.5679C26.3048 24.5679 24.2906 26.5825 24.2906 29.0803C24.2906 31.578 26.3048 33.5927 28.802 33.5927C31.2991 33.5927 33.3134 31.578 33.3134 29.0803C33.3134 26.5825 31.2991 24.5679 28.802 24.5679ZM28.802 32.0139C27.1882 32.0139 25.869 30.6983 25.869 29.0803C25.869 27.4622 27.1843 26.1466 28.802 26.1466C30.4196 26.1466 31.735 27.4622 31.735 29.0803C31.735 30.6983 30.4157 32.0139 28.802 32.0139ZM34.5502 24.3833C34.5502 24.9684 34.079 25.4358 33.4979 25.4358C32.9129 25.4358 32.4456 24.9645 32.4456 24.3833C32.4456 23.802 32.9168 23.3308 33.4979 23.3308C34.079 23.3308 34.5502 23.802 34.5502 24.3833ZM37.5382 25.4515C37.4714 24.0416 37.1494 22.7927 36.1168 21.7638C35.0881 20.7349 33.8395 20.4128 32.4299 20.3421C30.9772 20.2597 26.6228 20.2597 25.1701 20.3421C23.7644 20.4089 22.5158 20.7309 21.4832 21.7599C20.4506 22.7888 20.1325 24.0377 20.0618 25.4476C19.9794 26.9006 19.9794 31.256 20.0618 32.7091C20.1286 34.1189 20.4506 35.3678 21.4832 36.3968C22.5158 37.4257 23.7605 37.7477 25.1701 37.8184C26.6228 37.9009 30.9772 37.9009 32.4299 37.8184C33.8395 37.7517 35.0881 37.4296 36.1168 36.3968C37.1455 35.3678 37.4675 34.1189 37.5382 32.7091C37.6206 31.256 37.6206 26.9046 37.5382 25.4515ZM35.6613 34.2682C35.3551 35.0379 34.7622 35.6309 33.9887 35.9412C32.8304 36.4007 30.082 36.2946 28.802 36.2946C27.522 36.2946 24.7696 36.3968 23.6152 35.9412C22.8456 35.6349 22.2528 35.0418 21.9426 34.2682C21.4832 33.1096 21.5892 30.3606 21.5892 29.0803C21.5892 27.8 21.4871 25.047 21.9426 23.8924C22.2488 23.1226 22.8417 22.5296 23.6152 22.2194C24.7735 21.7599 27.522 21.8659 28.802 21.8659C30.082 21.8659 32.8344 21.7638 33.9887 22.2194C34.7583 22.5257 35.3512 23.1187 35.6613 23.8924C36.1207 25.0509 36.0147 27.8 36.0147 29.0803C36.0147 30.3606 36.1207 33.1136 35.6613 34.2682Z" fill="#C2D1E0"></path>
</svg>