<svg width="104" height="104" viewBox="0 0 104 104" fill="none" xmlns="http://www.w3.org/2000/svg">
    <circle cx="52" cy="52" r="52" fill="white"></circle>
    <path d="M52 72C63.0457 72 72 63.0457 72 52C72 40.9543 63.0457 32 52 32C40.9543 32 32 40.9543 32 52C32 63.0457 40.9543 72 52 72Z" stroke="#1D293F" stroke-width="2" stroke-miterlimit="10" stroke-linecap="round" stroke-linejoin="round"></path>
    <path d="M46.887 45.7975C47.2954 44.6352 48.1021 43.6551 49.1641 43.0308C50.226 42.4065 51.4747 42.1783 52.6889 42.3866C53.903 42.595 55.0042 43.2264 55.7974 44.169C56.5905 45.1116 57.0243 46.3046 57.022 47.5364C57.022 51.0134 51.807 52.7515 51.807 52.7515" stroke="#1D293F" stroke-width="2" stroke-miterlimit="10" stroke-linecap="round" stroke-linejoin="round"></path>
    <path d="M51.949 62.1318H51.966" stroke="#1D293F" stroke-width="2" stroke-miterlimit="10" stroke-linecap="round" stroke-linejoin="round"></path>
</svg>