<svg width="24" height="24" viewBox="0 0 28 28" fill="none" xmlns="http://www.w3.org/2000/svg">
    <path d="M20.642 13.6444C20.6387 12.5986 20.5267 11.556 20.3075 10.5333H23.1075C22.9633 10.1068 22.7892 9.69092 22.5864 9.28889H19.9809C19.4911 7.65249 18.7314 6.1094 17.7331 4.72333C17.0953 4.45516 16.4303 4.25696 15.7498 4.13222C17.1174 5.60163 18.1496 7.35042 18.7753 9.25778H14.5831V4H13.4164V9.26556H9.22421C9.85115 7.35475 10.8862 5.60315 12.2575 4.13222C11.5799 4.25488 10.9175 4.45046 10.282 4.71556C9.27978 6.09582 8.51484 7.63359 8.01865 9.26556H5.39754C5.19109 9.67493 5.01434 10.0986 4.86865 10.5333H7.69199C7.47288 11.556 7.36079 12.5986 7.35754 13.6444C7.35969 14.7884 7.49014 15.9285 7.74643 17.0433H4.9931C5.154 17.4793 5.34636 17.903 5.56865 18.3111H8.08087C8.55704 19.8012 9.26295 21.2077 10.1731 22.48C10.8249 22.7595 11.5057 22.9656 12.2031 23.0944C10.9337 21.7098 9.95746 20.0828 9.3331 18.3111H13.4242V23.2422H14.5909V18.3111H18.6664C18.0399 20.0835 17.061 21.7106 15.7887 23.0944C16.4893 22.9612 17.1728 22.7499 17.8264 22.4644C18.7351 21.197 19.441 19.7957 19.9187 18.3111H22.4075C22.6288 17.9105 22.8212 17.4947 22.9831 17.0667H20.222C20.4905 15.9454 20.6314 14.7974 20.642 13.6444V13.6444ZM13.4164 17.0433H8.95199C8.40441 14.9028 8.3804 12.6618 8.88199 10.51H13.4164V17.0433ZM19.0475 17.0433H14.5831V10.5333H19.1175C19.341 11.5551 19.4505 12.5985 19.4442 13.6444C19.4505 14.7893 19.3173 15.9307 19.0475 17.0433V17.0433Z" fill="#ffffff"></path>
    <path d="M14.0001 2C11.5388 2 9.13283 2.72985 7.08635 4.09727C5.03987 5.46468 3.44484 7.40824 2.50295 9.68216C1.56106 11.9561 1.31461 14.4582 1.79479 16.8722C2.27496 19.2862 3.46018 21.5036 5.20056 23.244C6.94095 24.9844 9.15834 26.1696 11.5723 26.6498C13.9863 27.1299 16.4885 26.8835 18.7624 25.9416C21.0363 24.9997 22.9799 23.4047 24.3473 21.3582C25.7147 19.3117 26.4446 16.9057 26.4446 14.4444C26.4446 11.144 25.1335 7.97868 22.7997 5.64489C20.4659 3.31111 17.3006 2 14.0001 2V2ZM14.0001 25.3333C11.8465 25.3333 9.74124 24.6947 7.95057 23.4982C6.1599 22.3017 4.76425 20.6011 3.94009 18.6114C3.11594 16.6218 2.9003 14.4324 3.32045 12.3201C3.7406 10.2079 4.77767 8.26768 6.30051 6.74484C7.82335 5.222 9.76356 4.18493 11.8758 3.76478C13.988 3.34463 16.1774 3.56027 18.1671 4.38442C20.1568 5.20858 21.8574 6.60423 23.0539 8.3949C24.2504 10.1856 24.889 12.2908 24.889 14.4444C24.889 17.3324 23.7418 20.102 21.6997 22.1441C19.6577 24.1861 16.888 25.3333 14.0001 25.3333Z" fill="#ffffff"></path>
</svg>